<?xml version="1.0" encoding="UTF-8" standalone="no"?>
<!-- Created with Inkscape (http://www.inkscape.org/) -->

<svg
   xmlns:dc="http://purl.org/dc/elements/1.1/"
   xmlns:cc="http://creativecommons.org/ns#"
   xmlns:rdf="http://www.w3.org/1999/02/22-rdf-syntax-ns#"
   xmlns:svg="http://www.w3.org/2000/svg"
   xmlns="http://www.w3.org/2000/svg"
   xmlns:sodipodi="http://sodipodi.sourceforge.net/DTD/sodipodi-0.dtd"
   xmlns:inkscape="http://www.inkscape.org/namespaces/inkscape"
   width="93.798141"
   height="94.006035"
   id="svg5174"
   version="1.1"
   inkscape:version="0.48.4 r9939"
   sodipodi:docname="traveler.svg">
  <defs
     id="defs5176" />
  <sodipodi:namedview
     id="base"
     pagecolor="#ffffff"
     bordercolor="#666666"
     borderopacity="1.0"
     inkscape:pageopacity="0.0"
     inkscape:pageshadow="2"
     inkscape:zoom="2.8"
     inkscape:cx="45.355564"
     inkscape:cy="45.567424"
     inkscape:document-units="px"
     inkscape:current-layer="layer1"
     showgrid="false"
     fit-margin-top="0"
     fit-margin-left="0"
     fit-margin-right="0"
     fit-margin-bottom="0"
     inkscape:window-width="1029"
     inkscape:window-height="694"
     inkscape:window-x="2313"
     inkscape:window-y="86"
     inkscape:window-maximized="0" />
  <metadata
     id="metadata5179">
    <rdf:RDF>
      <cc:Work
         rdf:about="">
        <dc:format>image/svg+xml</dc:format>
        <dc:type
           rdf:resource="http://purl.org/dc/dcmitype/StillImage" />
        <dc:title></dc:title>
      </cc:Work>
    </rdf:RDF>
  </metadata>
  <g
     inkscape:label="Calque 1"
     inkscape:groupmode="layer"
     id="layer1"
     transform="translate(-213.55785,-304.79255)">
    <g
       id="g746"
       transform="matrix(1.25,0,0,-1.25,306.73099,351.99101)"
       style="fill:#ffffff">
      <path
         d="m 0,0 c -0.451,-21.245 -17.044,-37.385 -37.989,-36.953 -19.928,0.41 -36.454,17.634 -36.053,37.573 0.417,20.763 17.006,37.067 37.309,36.628 C -15.436,36.79 -0.034,19.577 0,0 m -36.863,-33.025 c 18.306,0.161 32.973,14.966 32.842,33.153 -0.132,18.42 -15.155,33.337 -33.432,33.194 -18.146,-0.14 -32.998,-15.057 -32.886,-33.029 0.116,-18.523 15.143,-33.478 33.476,-33.318"
         style="fill:#ffffff;fill-opacity:1;fill-rule:nonzero;stroke:none"
         id="path748"
         inkscape:connector-curvature="0" />
    </g>
    <g
       id="g750"
       transform="matrix(1.25,0,0,-1.25,306.73099,351.99101)"
       style="fill:#ffffff">
      <path
         d="m 0,0 c -0.451,-21.245 -17.044,-37.385 -37.989,-36.953 -19.928,0.41 -36.454,17.634 -36.053,37.573 0.417,20.763 17.006,37.067 37.309,36.628 C -15.436,36.79 -0.034,19.577 0,0 z m -36.863,-33.025 c 18.306,0.161 32.973,14.966 32.842,33.153 -0.132,18.42 -15.155,33.337 -33.432,33.194 -18.146,-0.14 -32.998,-15.057 -32.886,-33.029 0.116,-18.523 15.143,-33.478 33.476,-33.318 z"
         style="fill:#ffffff;stroke:#ffffff;stroke-width:1;stroke-linecap:butt;stroke-linejoin:miter;stroke-miterlimit:10;stroke-opacity:1;stroke-dasharray:none"
         id="path752"
         inkscape:connector-curvature="0" />
    </g>
    <g
       id="g754"
       transform="matrix(1.25,0,0,-1.25,236.67575,339.89539)"
       style="fill:#ffffff">
      <path
         d="M 0,0 C 0.716,1.084 1.342,2.032 2.045,3.095 7.463,-0.486 12.8,-4.015 18.459,-7.758 24.879,-1.059 31.271,5.609 37.709,12.326 38.933,11.054 39.78,10.173 40.465,9.461 36.638,5.519 32.76,1.507 28.861,-2.484 c -3.137,-3.212 -6.286,-6.412 -9.48,-9.567 -0.277,-0.273 -1.086,-0.407 -1.38,-0.208 C 12.583,-8.625 7.209,-4.928 1.824,-1.247 1.266,-0.864 0.706,-0.484 0,0"
         style="fill:#ffffff;fill-opacity:1;fill-rule:nonzero;stroke:none"
         id="path756"
         inkscape:connector-curvature="0" />
    </g>
    <g
       id="g758"
       transform="matrix(1.25,0,0,-1.25,236.67575,339.89539)"
       style="fill:#ffffff">
      <path
         d="M 0,0 C 0.716,1.084 1.342,2.032 2.045,3.095 7.463,-0.486 12.8,-4.015 18.459,-7.758 24.879,-1.059 31.271,5.609 37.709,12.326 38.933,11.054 39.78,10.173 40.465,9.461 36.638,5.519 32.76,1.507 28.861,-2.484 c -3.137,-3.212 -6.286,-6.412 -9.48,-9.567 -0.277,-0.273 -1.086,-0.407 -1.38,-0.208 C 12.583,-8.625 7.209,-4.928 1.824,-1.247 1.266,-0.864 0.706,-0.484 0,0 z"
         style="fill:#ffffff;stroke:#ffffff;stroke-width:1;stroke-linecap:butt;stroke-linejoin:miter;stroke-miterlimit:10;stroke-opacity:1;stroke-dasharray:none"
         id="path760"
         inkscape:connector-curvature="0" />
    </g>
  </g>
</svg>
