<?xml version="1.0" encoding="UTF-8" standalone="no"?>
<!-- Created with Inkscape (http://www.inkscape.org/) -->

<svg
   xmlns:dc="http://purl.org/dc/elements/1.1/"
   xmlns:cc="http://creativecommons.org/ns#"
   xmlns:rdf="http://www.w3.org/1999/02/22-rdf-syntax-ns#"
   xmlns:svg="http://www.w3.org/2000/svg"
   xmlns="http://www.w3.org/2000/svg"
   xmlns:sodipodi="http://sodipodi.sourceforge.net/DTD/sodipodi-0.dtd"
   xmlns:inkscape="http://www.inkscape.org/namespaces/inkscape"
   width="68.374901"
   height="68.40625"
   id="svg2"
   version="1.1"
   inkscape:version="0.91 r13725"
   sodipodi:docname="logo-white.svg">
  <defs
     id="defs4">
    <clipPath
       clipPathUnits="userSpaceOnUse"
       id="clipPath3453">
      <path
         inkscape:connector-curvature="0"
         d="m 0,0 1024,0 0,3400 L 0,3400 0,0 z"
         id="path3455" />
    </clipPath>
  </defs>
  <sodipodi:namedview
     id="base"
     pagecolor="#ffffff"
     bordercolor="#666666"
     borderopacity="1.0"
     inkscape:pageopacity="0.0"
     inkscape:pageshadow="2"
     inkscape:zoom="0.49497475"
     inkscape:cx="962.02337"
     inkscape:cy="-150.36404"
     inkscape:document-units="px"
     inkscape:current-layer="g3451"
     showgrid="false"
     showborder="true"
     fit-margin-top="0"
     fit-margin-left="0"
     fit-margin-right="0"
     fit-margin-bottom="0"
     inkscape:window-width="1920"
     inkscape:window-height="1017"
     inkscape:window-x="1912"
     inkscape:window-y="-8"
     inkscape:window-maximized="1" />
  <metadata
     id="metadata7">
    <rdf:RDF>
      <cc:Work
         rdf:about="">
        <dc:format>image/svg+xml</dc:format>
        <dc:type
           rdf:resource="http://purl.org/dc/dcmitype/StillImage" />
        <dc:title></dc:title>
      </cc:Work>
    </rdf:RDF>
  </metadata>
  <g
     inkscape:label="Calque 1"
     inkscape:groupmode="layer"
     id="layer1"
     transform="translate(-160.78124,-207.90625)">
    <g
       transform="matrix(1.25,0,0,-1.25,111.42857,4442.478)"
       clip-path="url(#clipPath3453)"
       id="g3451">
      <g
         transform="translate(66.8252,3387.6489)"
         id="g3459"
         style="fill:#ffffff;fill-opacity:1">
        <path
           style="fill:#ffffff;fill-opacity:1;fill-rule:nonzero;stroke:none"
           d="m 194.96875,207.90625 c -18.88375,0 -34.1875,15.30375 -34.1875,34.1875 0,18.88375 15.30375,34.21875 34.1875,34.21875 13.3175,0 24.85375,-7.6375 30.5,-18.75 -1.0775,-0.6925 -2.31,-1.45375 -3.65625,-2.28125 -4.47,-2.75 -5.2125,-1.7275 -5.71875,-1.375 -0.50625,0.3525 -5.44005,4.0053 -7.5,4.84375 -3.31225,1.34816 -10.88845,2.35949 -15.15625,1.78125 -7.07558,-0.95866 -7.5838,-1.14381 -11.09375,-2.59375 -4.68628,-1.93587 -12.48625,-6.49375 -12.9375,-8 -1.34875,-4.50625 1.45722,-4.16407 2.09375,-3.90625 1.5971,0.64688 2.92816,1.54184 4.15625,2.09375 3.98495,1.79087 8.53273,3.99437 11.65625,4.0937 3.68579,0.11721 10.0625,-0.3125 10.0625,-0.3125 0.88891,-0.32048 1.64557,-1.05754 2.125,-1.56245 0.0462,-0.10927 0.0728,-0.24518 0.0312,-0.4375 -0.0416,-0.19232 -0.18098,-0.38201 -0.3125,-0.46875 -0.26304,-0.17349 -0.44031,-0.15813 -0.65625,-0.15625 -1.22838,0.0107 -7.71061,-0.12622 -8.75,-0.1875 -1.2303,-0.0769 -2.30161,-0.21187 -3.4375,-0.46875 -0.16742,-0.0578 -0.27336,-0.13588 -0.3125,-0.15625 0.006,-0.79375 0.38108,-1.23182 0.9375,-1.8125 6.3383,-1.17164 11.82337,-1.4379 17.75,-2.375 1.60959,-0.25765 2.96036,-0.54615 3.8125,-0.90625 0.49292,-0.20796 1.86673,-0.92446 3.53125,-1.6875 1.66452,-0.76304 3.18229,-1.41988 5.65845,-1.75835 4.33437,-0.59247 7.7815,1.20639 11.3728,3.4771 0.0163,-0.42875 0.0312,-0.88 0.0312,-1.3125 0,-18.88375 -15.30375,-34.1875 -34.1875,-34.1875 z m 8.84375,8.1875 0.6875,0 0,6.53125 0.78125,7 0.96875,0 -0.59375,1.53125 0,11.65625 c -0.36601,0.068 -0.68205,0.15285 -1.09375,0.21875 -0.63225,0.10121 -1.32433,0.21663 -2.03125,0.3125 l 0,-12.09375 -0.4375,-1.5625 0.9375,-0.0937 0.78125,-7 z m -26.34375,0.3125 1.3125,0.0625 0,3.75 0.875,0.0625 0,4.3125 0.84375,-0.0312 0,12.09375 1.875,0 0,-7.09375 1.25,-0.0937 0,-4.46875 2.5625,0.0937 0,5.53125 0.96875,-0.0312 0,2.4375 0.90625,0.0625 0,3.5 1.1875,0 0,8.4375 c -0.23658,0.0342 -0.56901,0.0607 -0.78125,0.0937 -0.45962,0.0716 -0.84646,0.1612 -1.15625,0.21875 -0.30979,0.0575 -0.52292,0.0874 -0.71875,0.15625 -0.70049,0.24736 -1.11533,0.82789 -1.4375,1.46875 -0.32217,0.64086 -0.61151,1.34571 -0.25,2.0625 0.23297,0.46113 0.638,0.64549 1.03125,0.78125 0.39325,0.13576 0.81722,0.21281 1.28125,0.28125 0.92806,0.13689 1.94454,0.21725 2.5,0.25 1.04236,0.0615 5.4509,0.13324 7.625,0.15625 -0.0758,0.0435 -0.2679,0.14885 -0.28125,0.15625 -0.29021,0.0197 -6.26459,0.54108 -9.71875,0.3125 -4.30857,-0.28513 -7.5856,-2.43135 -11.68745,-4.21875 l 0,-22.0625 0.90625,0 0,-4.28125 0.90625,-0.0625 z m 15.3125,7.65625 3.15625,0.0312 0,16.40625 2.1875,-0.0312 0,-10.375 2.65625,-0.0625 0,13.5 c -0.50925,0.0623 -1.01348,0.12854 -1.53125,0.1875 -1.91784,0.21825 -4.85056,0.59197 -7.40625,0.9375 -0.11769,0.0159 -0.19687,0.0157 -0.3125,0.0312 l 0,-5.25 1.25,0.0312 z m 18.625,1.15625 1.78125,0 0,13.65625 1.25,0 0,0.46875 c -0.91204,0.3508 -1.89938,0.78584 -2.84375,1.21875 -1.69079,0.77508 -3.27917,1.56796 -3.5625,1.6875 -0.15784,0.0667 -0.35107,0.11946 -0.59375,0.1875 l 0,-4.4375 0.875,-0.0937 0,-4.46875 1.90625,-0.1875 0,-6.1875 1.1875,-0.0625 z"
           transform="matrix(0.8,0,0,-0.8,-155.96806,166.3335)"
           id="path3461"
           inkscape:connector-curvature="0"
           sodipodi:nodetypes="cssccsssscssscccccccccccsscssccccccccccccccccccccccccccccccccccscscscscccscccccccccccccccccccccccscccccccccc" />
      </g>
      <g
         transform="translate(50.3531,3356.4988)"
         id="g3463" />
    </g>
  </g>
</svg>
